# AST/ASF file generated using VICON BodyLanguage
# -----------------------------------------------
:version 1.10
:name VICON
:units
  mass 1.0
  length 0.45
  angle deg
:documentation
   .ast/.asf automatically generated from VICON data using
   VICON BodyBuilder and BodyLanguage model FoxedUp or BRILLIANT.MOD
:root
   order TX TY TZ RX RY RZ
   axis XYZ
   position 0 0 0  
   orientation 0 0 0 
:bonedata
  begin
     id 1 
     name lhipjoint
     direction 0.547975 -0.797114 0.253638 
     length 2.36201 
     axis 0 0 0  XYZ
  end
  begin
     id 2 
     name lfemur
     direction 0.34202 -0.939693 0  
     length 7.69075  
     axis 0 0 20  XYZ
    dof rx ry rz
    limits (-160.0 20.0)
           (-70.0 70.0)
           (-60.0 70.0)
  end
  begin
     id 3 
     name ltibia
     direction 0.34202 -0.939693 0   
     length 7.91399   
     axis 0 0 20   XYZ
    dof rx
    limits (-10.0 170.0)
  end
  begin
     id 4 
     name lfoot
     direction 0.0705293 -0.193778 0.978507   
     length 2.13618   
     axis -90 7.62852e-016 20   XYZ
    dof rx rz
    limits (-45.0 90.0)
           (-70.0 20.0)
  end
  begin
     id 5 
     name ltoes
     direction 1.53592e-011 -4.21925e-011 1   
     length 1.07518   
     axis -90 7.62852e-016 20   XYZ
    dof rx
    limits (-90.0 20.0)
  end
  begin
     id 6 
     name rhipjoint
     direction -0.57 -0.782963 0.249136   
     length 2.4047  
     axis 0 0 0  XYZ 
  end
  begin
     id 7 
     name rfemur
     direction -0.34202 -0.939693 0   
     length 7.51486   
     axis 0 0 -20   XYZ
    dof rx ry rz
    limits (-160.0 20.0)
           (-70.0 70.0)
           (-70.0 60.0)
  end
  begin
     id 8 
     name rtibia
     direction -0.34202 -0.939693 0   
     length 8.08317   
     axis 0 0 -20   XYZ
    dof rx
    limits (-10.0 170.0)
 end
 begin
     id 9 
     name rfoot
     direction -0.104954 -0.281256 0.953876   
     length 2.30343  
     axis -90 -7.62852e-016 -20   XYZ
    dof rx rz
    limits (-45.0 90.0)
           (-20.0 70.0)
  end
  begin
     id 10 
     name rtoes
     direction -1.53556e-011 -4.21922e-011 1   
     length 1.14803   
     axis -90 -7.62852e-016 -20   XYZ
    dof rx
    limits (-90.0 20.0)
  end
  begin
     id 11 
     name lowerback
     direction -0.0152855 0.99353 -0.11254   
     length 2.05311   
     axis 0 0 0   XYZ
    dof rx ry rz
    limits (-20.0 45.0)
           (-30.0 30.0)
           (-30.0 30.0)
  end
  begin
     id 12 
     name upperback
     direction -0.00157509 0.999443 -0.033332   
     length 2.06353   
     axis 0 0 0   XYZ
    dof rx ry rz
    limits (-20.0 45.0)
           (-30.0 30.0)
           (-30.0 30.0)
  end
  begin
     id 13 
     name thorax
     direction 0.00577788 0.999804 0.0189484   
     length 2.08472   
     axis 0 0 0   XYZ
    dof rx ry rz
    limits (-20.0 45.0)
           (-30.0 30.0)
           (-30.0 30.0)
  end
  begin
     id 14 
     name lowerneck
     direction -1.09301e-005 0.994719 0.10264   
     length 1.76249   
     axis 0 0 0   XYZ
    dof rx ry rz
    limits (-20.0 45.0)
           (-30.0 30.0)
           (-30.0 30.0)
  end
  begin
     id 15 
     name upperneck
     direction 0.0495018 0.988526 -0.142706   
     length 1.77897   
     axis 0 0 0   XYZ
    dof rx ry rz
    limits (-20.0 45.0)
           (-30.0 30.0)
           (-30.0 30.0)
  end
  begin
     id 16
     name head
     direction 0.0142736 0.998114 -0.0597101  
     length 1.78934  
     axis 0 0 0   XYZ
    dof rx ry rz
    limits (-20.0 45.0)
           (-30.0 30.0)
           (-30.0 30.0)
  end
  begin
     id 17 
     name lclavicle
     direction 0.918111 0.396107 -0.0130883  
     length 3.37276  
     axis 0 0 0   XYZ
    dof ry rz
    limits (-20.0 10.0)
           (0.0 20.0)
  end
  begin
     id 18 
     name lhumerus
     direction 1 -4.48975e-011 -3.26108e-027   
     length 5.34298   
     axis 180 -30 -90   XYZ
    dof rx ry rz
    limits (-60.0 90.0)
           (-90.0 90.0)
           (-90.0 90.0)
  end
  begin
     id 19
     name lradius
     direction 1 -4.48964e-011 -8.84413e-028   
     length 3.67262   
     axis 180 -30 -90   XYZ
    dof rx
    limits (-10.0 170.0)
  end
  begin
     id 20
     name lwrist
     direction 1 -4.48991e-011 -1.24264e-027   
     length 1.83631   
     axis -2.17013e-015 90 90   XYZ
    dof ry
    limits (-180.0 0.0)
 end
  begin
     id 21 
     name lhand
     direction 1 -4.48855e-011 -2.48528e-027   
     length 0.599298   
     axis 1.58582e-015 90 90   XYZ
    dof rx rz
    limits (-90.0 90.0)
           (-45.0 45.0)
  end
  begin
     id 22 
     name lfingers
     direction 1 -4.48811e-011 -4.97056e-027   
     length 0.48317   
     axis 3.17164e-015 90 90   XYZ
    dof rx
    limits (0.0 90.0)
  end
  begin
     id 23
     name lthumb
     direction 0.707107 -6.34882e-011 0.707107   
     length 0.693738   
     axis -90 45 2.85299e-015   XYZ
    dof rx rz
    limits (-45.0 45.0)
           (-45.0 45.0)
  end
  begin
     id 24 
     name rclavicle
     direction -0.920511 0.384752 -0.0680135   
     length 3.43787  
     axis 0 0 0   XYZ 
    dof ry rz
    limits (-10.0 20.0)
           (-20.0 0.0)
  end
  begin
     id 25 
     name rhumerus
     direction -0.999976 -0.00330524 0.00603274  
     length 5.5498   
     axis 180 30 90   XYZ
    dof rx ry rz
    limits (-90.0 60.0)
           (-90.0 90.0)
           (-90.0 90.0)
  end
  begin
     id 26 
     name rradius
     direction -1 -4.48967e-011 8.62438e-027   
     length 3.69401   
     axis 180 30 90   XYZ
    dof rx
    limits (-10.0 170.0)
  end
  begin
     id 27 
     name rwrist
     direction -1 -4.4897e-011 9.54866e-027   
     length 1.84701   
     axis -7.69462e-015 -90 -90   XYZ
    dof ry
    limits (-180.0 0.0)
  end
  begin
     id 28
     name rhand
     direction -1 -4.48982e-011 1.90973e-026   
     length 0.638113   
     axis -1.21857e-014 -90 -90   XYZ
    dof rx rz
    limits (-90.0 90.0)
           (-45.0 45.0)
  end
  begin
     id 29
     name rfingers
     direction -1 -4.48936e-011 3.81946e-026   
     length 0.514463   
     axis -2.43714e-014 -90 -90   XYZ
    dof rx
    limits (0.0 90.0)
  end
  begin
     id 30
     name rthumb
     direction -0.707107 -6.34942e-011 0.707107   
     length 0.738669   
     axis -90 -45 -2.85299e-015   XYZ
    dof rx rz
    limits (-45.0 45.0)
           (-45.0 45.0)
  end
:hierarchy
  begin
    root lhipjoint rhipjoint lowerback
    lhipjoint lfemur
    lfemur ltibia
    ltibia lfoot
    lfoot ltoes
    rhipjoint rfemur
    rfemur rtibia
    rtibia rfoot
    rfoot rtoes
    lowerback upperback
    upperback thorax
    thorax lowerneck lclavicle rclavicle
    lowerneck upperneck
    upperneck head
    lclavicle lhumerus
    lhumerus lradius
    lradius lwrist
    lwrist lhand lthumb
    lhand lfingers
    rclavicle rhumerus
    rhumerus rradius
    rradius rwrist
    rwrist rhand rthumb
    rhand rfingers
  end

#!OML:ASF F:\twosubjects\two\Thursday\Session 1\Rory.ASF
:FULLY-SPECIFIED
:DEGREES
80
root 12.662 16.0223 7.50216 -139.91 -85.0325 136.197
lowerback 7.3994 -1.38998 -3.84189
upperback -0.646903 -2.29229 -1.49679
thorax -4.73814 -1.06441 0.861716
lowerneck -7.80591 0.215307 -0.152899
upperneck 14.8044 -0.314303 2.94734
head 5.7606 -0.0191939 0.921718
rclavicle 1.87292e-014 -2.78299e-015
rhumerus 54.4022 -40.913 -23.0985
rradius 74.4746
rwrist -5.52807
rhand -34.4971 33.5227
rfingers 7.12502
rthumb -7.6594 3.68136
lclavicle 1.87292e-014 -2.78299e-015
lhumerus 42.9117 38.6219 12.7823
lradius 77.3397
lwrist 11.8007
lhand -16.9859 36.3346
lfingers 7.12502
lthumb 9.24896 66.1118
rfemur -11.7522 24.9193 -4.80766
rtibia 50.9011
rfoot -24.6354 -16.4888
rtoes -39.3435
lfemur -6.01247 -10.6532 -2.14169
ltibia 53.9124
lfoot -27.8319 -2.75405
ltoes -36.2754
81
root 12.6418 16.2172 7.51423 -139.343 -84.9852 135.872
lowerback 7.12253 -1.43236 -3.95021
upperback -0.688545 -2.33887 -1.40491
thorax -4.61522 -1.08484 1.01451
lowerneck -8.27829 0.206336 -0.490527
upperneck 14.7619 -0.305905 3.18141
head 5.82862 -0.00872863 1.05303
rclavicle -6.02566e-015 -4.96962e-015
rhumerus 53.4311 -41.1725 -22.4748
rradius 73.6933
rwrist -5.28671
rhand -34.3059 32.8928
rfingers 7.12502
rthumb -7.47482 3.0449
lclavicle -6.02566e-015 -4.96962e-015
lhumerus 40.8789 38.3321 11.2559
lradius 76.4803
lwrist 11.7506
lhand -17.3894 36.7884
lfingers 7.12502
lthumb 8.85961 66.5825
rfemur -11.1831 24.9705 -4.84574
rtibia 49.0698
rfoot -22.7592 -15.2811
rtoes -37.9143
lfemur -5.43684 -10.7494 -2.51837
ltibia 52.0483
lfoot -26.0804 -2.71601
ltoes -36.1029
82
root 12.6209 16.4258 7.52528 -139.941 -84.9236 136.799
lowerback 6.86744 -1.27929 -3.88212
upperback -0.779106 -2.11039 -1.28362
thorax -4.5733 -0.970705 1.072
lowerneck -8.71888 0.00621387 -0.952611
upperneck 14.6732 -0.531008 3.40077
head 5.88203 -0.11925 1.18258
rclavicle -1.37658e-014 -8.74653e-015
rhumerus 51.7653 -41.7155 -21.1072
rradius 72.8967
rwrist -5.07404
rhand -33.3682 31.595
rfingers 7.12502
rthumb -6.56971 1.71688
lclavicle -1.37658e-014 -8.74653e-015
lhumerus 39.5463 37.8512 10.6042
lradius 75.5403
lwrist 11.032
lhand -17.8833 37.2433
lfingers 7.12502
lthumb 8.38298 67.0569
rfemur -10.7435 24.9385 -4.84733
rtibia 47.2213
rfoot -20.784 -14.0574
rtoes -35.6536
lfemur -4.90965 -10.7568 -2.80244
ltibia 50.0952
lfoot -24.1063 -2.41438
ltoes -36.9127
83
root 12.6005 16.6478 7.53244 -140.617 -84.9133 137.917
lowerback 6.551 -1.11533 -3.63878
upperback -0.935717 -1.85507 -1.21088
thorax -4.57392 -0.846985 0.978933
lowerneck -9.1359 -0.244626 -1.17915
upperneck 14.7178 -0.831752 3.40522
head 5.97576 -0.270144 1.19921
rclavicle -3.13459e-014 -1.39149e-014
rhumerus 49.9959 -42.2526 -19.7453
rradius 71.9448
rwrist -5.20218
rhand -32.7291 30.7343
rfingers 7.12502
rthumb -5.95271 0.837879
lclavicle -3.13459e-014 -1.39149e-014
lhumerus 38.0933 37.3924 9.91495
lradius 74.6799
lwrist 10.3894
lhand -17.8062 36.9641
lfingers 7.12502
lthumb 8.4574 66.7748
rfemur -10.4116 24.8498 -4.7522
rtibia 45.3539
rfoot -18.1772 -13.4964
rtoes -35.9111
lfemur -4.48708 -10.9053 -2.9665
ltibia 48.036
lfoot -21.817 -3.22496
ltoes -34.3499
84
root 12.5732 16.8983 7.53781 -139.387 -84.8817 137.052
lowerback 6.11835 -1.17559 -3.75334
upperback -1.0699 -1.92589 -1.18829
thorax -4.46186 -0.879405 1.06399
lowerneck -9.15148 -0.285004 -0.701565
upperneck 14.6742 -0.8941 3.00348
head 5.96333 -0.303979 0.988309
rclavicle 3.08209e-014 1.86858e-014
rhumerus 48.657 -42.5321 -18.886
rradius 70.6749
rwrist -5.71044
rhand -33.1544 30.4715
rfingers 7.12502
rthumb -6.36329 0.587076
lclavicle 3.08209e-014 1.86858e-014
lhumerus 35.9926 36.914 8.48546
lradius 73.7384
lwrist 10.1365
lhand -17.9196 36.5485
lfingers 7.12502
lthumb 8.34797 66.3636
rfemur -9.90422 25.0291 -4.67292
rtibia 43.4792
rfoot -15.4985 -12.8149
rtoes -35.7638
lfemur -3.95362 -11.38 -3.34694
ltibia 45.8769
lfoot -18.927 -4.19545
ltoes -30.2905
85
root 12.543 17.1618 7.54391 -137.488 -84.9384 135.507
lowerback 5.57025 -1.29039 -3.82468
upperback -1.12931 -2.0613 -1.23949
thorax -4.2073 -0.950091 1.04924
lowerneck -9.07715 -0.261158 0.129879
upperneck 14.5328 -0.915125 2.56374
head 5.90227 -0.303161 0.710425
rclavicle 2.01425e-014 -2.98177e-015
rhumerus 47.1847 -42.8548 -18.1939
rradius 69.1137
rwrist -5.81521
rhand -33.7702 30.6759
rfingers 7.12502
rthumb -6.95771 0.810266
lclavicle 2.01425e-014 -2.98177e-015
lhumerus 34.1752 36.3453 7.26795
lradius 72.7327
lwrist 9.83213
lhand -18.2675 37.2405
lfingers 7.12502
lthumb 8.01217 67.0687
rfemur -9.33916 25.1636 -4.48251
rtibia 41.6012
rfoot -12.6186 -12.2704
rtoes -35.1207
lfemur -3.48042 -11.9688 -3.71477
ltibia 43.6828
lfoot -15.6836 -4.48881
ltoes -29.1203
86
root 12.5191 17.4366 7.55604 -141.245 -85.1778 139.854
lowerback 4.96606 -1.28172 -3.20047
upperback -1.24078 -1.97615 -1.16159
thorax -4.00191 -0.923791 0.758822
lowerneck -9.30968 -0.298396 0.385086
upperneck 14.5776 -1.01081 2.58128
head 5.95722 -0.331728 0.666354
rclavicle 1.27719e-014 -1.78906e-015
rhumerus 45.5148 -43.3085 -17.4951
rradius 67.7291
rwrist -6.00307
rhand -33.8201 30.592
rfingers 7.12502
rthumb -7.00589 0.727934
lclavicle 1.27719e-014 -1.78906e-015
lhumerus 32.4343 35.889 6.38022
lradius 71.8431
lwrist 9.69715
lhand -18.1983 37.8474
lfingers 7.12502
lthumb 8.07898 67.673
rfemur -9.28325 25.1341 -3.91695
rtibia 39.7142
rfoot -8.94685 -11.803
rtoes -35.1288
lfemur -3.2959 -12.2482 -3.46433
ltibia 41.509
lfoot -12.3098 -4.50118
ltoes -28.7423
87
root 12.4999 17.7096 7.56796 -147.405 -85.4192 146.644
lowerback 4.41485 -1.21551 -2.43848
upperback -1.43072 -1.81852 -1.07421
thorax -3.91205 -0.86215 0.3991
lowerneck -9.58359 -0.388683 0.300832
upperneck 14.8733 -1.19491 2.93083
head 6.10292 -0.396077 0.776068
rclavicle 1.21787e-014 -8.94531e-016
rhumerus 43.408 -43.6646 -16.3883
rradius 66.5505
rwrist -7.07361
rhand -33.9343 30.3651
rfingers 7.12502
rthumb -7.1161 0.504702
lclavicle 1.21787e-014 -8.94531e-016
lhumerus 30.9443 35.3101 5.6817
lradius 70.7134
lwrist 9.49819
lhand -17.9665 37.4799
lfingers 7.12502
lthumb 8.30263 67.2967
rfemur -9.3859 25.2326 -3.18978
rtibia 37.8179
rfoot -4.59131 -11.5419
rtoes -35.1838
lfemur -3.23892 -12.4035 -3.02414
ltibia 39.4118
lfoot -8.51958 -4.32509
ltoes -27.9492
88
root 12.4753 17.9712 7.57253 -147.97 -85.5338 147.688
lowerback 3.78687 -1.26437 -2.36679
upperback -1.53946 -1.8589 -1.011
thorax -3.6688 -0.885679 0.412675
lowerneck -9.52589 -0.406406 0.320384
upperneck 14.8893 -1.24805 3.07099
head 6.09976 -0.411657 0.812948
rclavicle 1.14674e-014 5.76476e-015
rhumerus 41.71 -43.9871 -15.6611
rradius 65.4817
rwrist -8.11868
rhand -34.1684 29.4395
rfingers 7.12502
rthumb -7.34208 -0.41307
lclavicle 1.14674e-014 5.76476e-015
lhumerus 29.281 34.6259 4.90607
lradius 69.3629
lwrist 9.12563
lhand -17.9154 37.7328
lfingers 7.12502
lthumb 8.35201 67.5476
rfemur -9.28043 25.3198 -2.80878
rtibia 35.9523
rfoot 0.0248681 -11.4959
rtoes -35.6624
lfemur -3.12722 -12.7128 -3.11108
ltibia 37.3816
lfoot -4.53259 -3.91625
ltoes -26.9034
